<?xml version="1.0" standalone="no"?>
<!DOCTYPE svg PUBLIC "-//W3C//DTD SVG 1.1//EN" "http://www.w3.org/Graphics/SVG/1.1/DTD/svg11.dtd" >
<svg xmlns="http://www.w3.org/2000/svg">
<metadata>Generated by IcoMoon</metadata>
<defs>
<font id="splik" horiz-adv-x="512">
<font-face units-per-em="512" ascent="480" descent="-32" />
<missing-glyph horiz-adv-x="512" />
<glyph unicode="&#x20;" d="" horiz-adv-x="256" />
<glyph unicode="&#xe600;" d="M338.824 343.112c0-74.211-60.16-134.371-134.371-134.371s-134.371 60.16-134.371 134.371c0 74.211 60.16 134.371 134.371 134.371s134.371-60.16 134.371-134.371zM408.326-34.517h-408.326v137.267c0 66.606 55.023 121.629 121.629 121.629h165.068c66.606 0 121.629-55.022 121.629-121.629v-137.267z" horiz-adv-x="409" />
<glyph unicode="&#xe601;" d="M630.258 417.011c-22.845-10.75-48.378-17.47-73.911-20.157 26.876 16.126 47.034 41.659 56.441 71.223-25.533-14.782-52.409-25.533-81.974-30.908-24.189 25.533-57.785 40.315-94.068 40.315-71.223 0-129.008-57.785-129.008-129.008 0-10.75 1.344-20.158 2.688-29.565-107.507 5.375-202.918 56.441-266.079 134.383-12.094-18.813-17.47-40.315-17.47-64.504 0-44.347 22.845-84.661 57.785-107.507-21.502 0-41.659 6.719-59.129 16.126 0 0 0-1.344 0-1.344 0-63.16 44.346-114.226 103.475-126.32-10.751-2.688-22.845-4.031-33.596-4.031-8.063 0-16.126 1.344-24.189 2.688 16.126-51.066 64.504-88.693 120.945-90.037-44.346-34.94-99.444-55.097-159.916-55.097-10.751 0-20.157 0-30.908 1.344 57.785-36.284 124.977-57.785 197.543-57.785 237.858 0 366.866 196.199 366.866 366.866 0 5.375 0 10.75 0 16.126 24.189 18.813 47.034 41.659 64.504 67.192z" horiz-adv-x="631" />
<glyph unicode="&#xe602;" d="M380.967 167.695c-27.501 0-47.722-23.457-71.178-23.457s-131.033 105.15-131.033 131.033c0 25.883 23.457 38.825 23.457 65.517 0 19.412-71.179 136.695-101.106 136.695s-101.106-52.575-101.106-101.106c0-141.548 260.449-410.894 423.027-410.894 44.486 0 101.106 46.913 101.106 101.106 0 18.603-116.474 101.106-143.166 101.106z" horiz-adv-x="524" />
<glyph unicode="&#xe603;" d="M384.147-2.701c0-17.675-14.14-31.816-31.816-31.816h-320.515c-17.675 0-31.816 14.14-31.816 31.816v238.030c0 17.675 14.14 31.816 31.816 31.816h319.926c17.675 0 31.816-14.14 31.816-31.816v-238.030zM231.549 82.731h-79.54c-64.81 0-117.248 52.438-117.248 117.248v160.258c0 64.81 53.026 117.248 117.248 117.248h79.54c64.81 0 117.248-52.438 117.248-117.248v-160.258c0-64.81-52.438-117.248-117.248-117.248zM152.009 424.457c-34.762 0-63.632-28.87-63.632-64.221v-160.258c0-35.351 28.87-64.221 64.221-64.221h79.54c35.351 0 64.221 28.87 64.221 64.221v160.258c0 35.351-28.87 64.221-64.221 64.221h-80.129z" horiz-adv-x="384" />
<glyph unicode="&#xe604;" d="M528.944-34.517h-486.952c-22.837 0-41.992 18.418-41.992 41.991v428.017c0 23.574 18.418 41.992 41.992 41.992h304.99c22.837 0 41.991-18.418 41.991-41.992 0-22.837-18.418-41.991-41.991-41.991h-262.998v-344.034h402.97v67.775c0 22.837 18.418 41.991 41.992 41.991 22.837 0 41.991-18.418 41.991-41.991v-109.767c-0.736-22.837-19.154-41.991-41.991-41.991zM604.823 318.358l-131.131 120.080c-8.103 7.367-13.997 4.42-13.997-6.63v-52.305c-271.102-19.154-288.046-248.265-288.046-248.265s119.344 155.441 288.046 101.663v-54.515c0-10.313 6.63-13.26 13.997-6.63l131.868 120.080c7.367 7.367 7.367 19.154-0.736 26.521z" horiz-adv-x="611" />
<glyph unicode="&#xe605;" d="M572.49 412.673c0-23.763-19.443-43.207-43.207-43.207h-486.076c-23.764 0-43.206 19.443-43.206 43.207v21.604c0 23.763 19.443 43.206 43.206 43.206h486.076c23.764 0 43.207-19.443 43.207-43.206v-21.604zM572.49 211.762c0-23.764-19.443-43.207-43.207-43.207h-486.076c-23.764 0-43.206 19.443-43.206 43.207v21.603c0 23.763 19.443 43.206 43.206 43.206h486.076c23.764 0 43.207-19.443 43.207-43.206v-21.603zM572.49 8.69c0-23.764-19.443-43.207-43.207-43.207h-486.076c-23.764 0-43.206 19.443-43.206 43.207v21.603c0 23.764 19.443 43.207 43.206 43.207h486.076c23.764 0 43.207-19.443 43.207-43.207v-21.603z" horiz-adv-x="573" />
<glyph unicode="&#xe606;" d="M345.915 408.758v-80.179l68.725 10.308v69.87c0 37.798-30.926 68.725-68.725 68.725v0h-277.19c-37.798 0-68.725-30.926-68.725-68.725v-277.19c0-37.798 30.926-68.725 68.725-68.725h65.288l-2.291 68.725c0 0-75.597 2.291-62.998 0v277.19h277.19zM439.839 311.398v-277.19h-276.045v277.19h276.045zM439.839 380.123h-276.045c-37.798 0-68.725-30.926-68.725-68.725v-277.19c0-37.798 30.926-68.725 68.725-68.725h277.19c37.798 0 68.725 30.926 68.725 68.725v277.19c-1.146 37.798-32.072 68.725-69.87 68.725v0z" horiz-adv-x="509" />
<glyph unicode="&#xe607;" d="M221.905 30.206c0 0 54.321-2.312 54.321 43.918l1.156 162.962 67.612 99.395 1.156-210.347c-0.578-0.578 9.246-135.224-124.244-95.928zM2.889 335.325v-298.185c0 0 2.312-68.768 71.079-68.768h205.724c0 0 66.456 6.935 66.456 72.235v84.948c0 0-9.246-95.928-116.154-95.928h-106.329c0 0-50.853 11.558-50.853 52.009l1.156 154.872-71.079 98.817zM73.969 315.1v110.952c0 0 15.602 48.542 105.174 48.542s98.239-55.476 98.239-55.476l-1.156-167.007-68.767 47.386c0 0 19.070 105.174-32.939 105.174s-100.551-89.571-100.551-89.571zM72.813 250.955v69.923c0 0 37.562 83.793 101.707 83.793 0 0-53.165 0-30.627-105.174l-71.079-48.542z" horiz-adv-x="349" />
<glyph unicode="&#xe608;" d="M595.494 306.357c-0.69 94.534-76.593 171.127-171.126 171.127-50.372 0-97.294-28.981-128.345-63.483-31.051 34.501-74.523 63.483-124.895 63.483-94.534 0-173.887-76.593-171.126-171.127 6.21-216.668 282.221-340.183 298.091-341.563 14.49-0.69 298.782 151.116 297.401 341.563z" horiz-adv-x="596" />
<glyph unicode="&#xe609;" d="M82.713-20.845l73.143 73.143c89.548-58.104 210.542-47.851 288.47 30.761 90.232 90.233 90.232 236.518 0 326.75s-236.518 90.233-326.75 0c-77.928-77.928-88.181-198.921-30.078-288.47l-73.143-73.143c-19.14-19.14-19.14-49.901 0-68.358 18.456-19.14 49.218-19.14 68.358-0.683zM179.781 348.287c56.053 56.053 146.969 56.053 203.022 0s56.053-146.97 0-203.023c-56.053-56.053-146.97-56.053-203.023 0s-56.053 146.97 0 203.023z" />
<glyph unicode="&#xe60a;" d="M172.239-34.517v233.586h77.862l11.797 90.838h-89.659v57.807c0 25.954 7.078 44.829 44.829 44.829h48.368v81.401c-8.258 1.179-36.572 3.539-69.603 3.539-69.603 0-116.793-42.47-116.793-120.332v-67.244h-79.041v-90.838h79.041v-233.586h93.198z" horiz-adv-x="266" />
<glyph unicode="&#xe60b;" d="M598.614-34.517h-507.111c-50.292 0-91.504 41.212-91.504 91.504v328.993c0 50.292 41.212 91.504 91.504 91.504h507.111c50.292 0 91.504-41.212 91.504-91.504v-328.993c0-50.292-41.212-91.504-91.504-91.504zM91.504 394.362c-4.191 0-8.382-3.493-8.382-8.382v-328.993c0-4.191 3.493-8.382 8.382-8.382h507.111c4.191 0 8.382 3.493 8.382 8.382v328.993c0 4.191-3.492 8.382-8.382 8.382h-507.111zM345.058 179.923c-7.683 0-15.367 2.096-21.654 6.287l-303.847 187.896c-19.558 11.875-25.146 37.719-13.271 57.277s37.719 25.146 57.277 13.272l280.098-173.228 254.253 172.529c18.86 12.573 44.704 7.683 57.277-11.176s7.683-44.704-11.176-57.976l-275.907-187.897c-6.985-4.191-14.668-6.985-23.050-6.985z" horiz-adv-x="690" />
<glyph unicode="&#xe60c;" d="M836.937 151.161c0-42.956-35.334-77.597-78.982-77.597h-374.82c-43.648 0-78.983 34.641-78.983 77.597v248.726c0 42.955 35.334 77.597 78.983 77.597h374.82c43.648 0 78.982-34.642 78.982-77.597v-248.726zM550.106 79.107c0-42.956-35.334-77.597-78.983-77.597 0 0-296.531 22.17-418.468 52.655-31.177 7.621-51.27 16.628-51.27 24.942v258.425c0 42.956 35.334 77.597 78.982 77.597h390.755c43.648 0 78.982-34.642 78.982-77.597v-258.425zM126.787-34.517l-126.787 108.081 126.787-22.864z" horiz-adv-x="837" />
<glyph unicode="&#xe60d;" d="M383.455 248.173h-100.766v100.766h-53.379v-100.766h-100.766v-53.378h100.766v-100.766h53.378v100.766h100.766zM256-34.517c-141.072 0-256 114.928-256 256s114.927 256 256 256c141.072 0 256-114.928 256-256s-114.928-256-256-256zM256 413.756c-105.668 0-191.727-86.060-191.727-192.272 0-105.668 86.059-191.727 191.727-191.727s192.273 86.059 192.273 191.727c-0.545 105.668-86.605 192.273-192.273 192.273z" />
<glyph unicode="&#xe60e;" d="M195.223-34.517c-14.734 0-29.468 7.367-40.518 18.418l-143.655 184.173c-18.418 22.101-14.734 55.252 7.367 69.985 22.101 22.101 55.252 18.417 73.669-3.684l99.453-128.921 224.691 349.928c14.734 22.1 47.885 29.467 69.986 14.734s29.467-47.885 14.734-69.986l-265.209-408.863c-7.367-14.734-22.101-22.101-40.518-25.784 0 0 0 0 0 0z" />
<glyph unicode="&#xe60f;" d="M162.512-10.053c-61.16 0-104.847 38.444-104.847 85.625 0 45.433 54.17 83.877 115.331 82.13 13.98 0 27.959-1.747 40.191-6.99 33.202-22.716 55.918-36.696 62.908-62.908 1.748-5.242 1.748-10.485 1.748-15.727 0-45.433-29.707-82.13-115.331-82.13zM178.239 262.548c-40.191 1.748-80.382 45.434-87.372 99.604-6.99 52.423 20.969 94.362 61.16 92.615s80.382-43.686 87.372-97.857c6.99-54.171-20.97-96.109-61.161-94.362zM262.116 182.166c-13.98 10.485-41.939 34.949-41.939 48.928 0 17.475 5.243 26.212 29.707 45.434 26.212 20.97 45.434 48.928 45.434 82.13 0 40.191-17.474 78.635-50.676 90.867h50.676l34.949 26.212h-157.269c-71.645 1.748-138.048-52.423-138.048-115.331 0-64.656 48.928-115.331 120.573-115.331 5.243 0 10.484 0 13.98 0-5.243-8.737-8.737-19.222-8.737-29.706 0-17.475 8.737-31.454 20.97-43.686-8.737 0-17.475 0-27.959 0-87.372 0-155.522-55.918-155.522-113.583s75.14-92.615 162.512-92.615c99.604 0 155.522 57.665 155.522 113.583 1.748 47.181-12.232 73.393-54.171 103.099zM492.778 257.306h-61.161v61.16h-48.928v-61.16h-61.161v-48.928h61.161v-62.908h48.928v61.16h61.161v50.676z" horiz-adv-x="493" />
<glyph unicode="&#xe610;" d="M336.181 249.498c-44.438 0-56.030-75.351-85.012-75.351-5.796 0-11.593 15.457-13.524 30.913v220.256c0 13.524-9.661 23.185-23.185 23.185s-23.185-9.661-23.185-23.185v-185.479h-19.321v212.528c-1.932 15.457-11.593 25.117-25.117 25.117s-23.185-9.661-23.185-23.185v-212.528h-19.321v193.208c0 13.524-11.593 23.185-23.185 23.185-13.525 0-25.117-9.661-25.117-23.185v-212.529h-17.389v141.041c0 9.661-7.729 19.321-19.321 19.321s-19.321-7.728-19.321-19.321v-264.694c0 0 3.864-133.313 142.974-133.313 158.43 0 129.449 195.139 218.325 270.49 0 7.728-11.592 15.457-25.117 13.524z" horiz-adv-x="362" />
<glyph unicode="&#xe611;" d="M455.111 398.222h-398.222c-15.709 0-28.445-12.736-28.445-28.445v-284.445c0-15.709 12.736-28.445 28.445-28.445h398.222c15.709 0 28.445 12.736 28.445 28.445v284.445c0 15.709-12.736 28.445-28.445 28.445zM415.805 341.334l-159.805-108.98-159.805 108.98h319.611zM426.666 128c0-7.854-6.361-14.222-14.222-14.222h-312.889c-7.862 0-14.222 6.368-14.222 14.222v152.535l156.361-105.903c4.417-2.646 9.362-3.966 14.306-3.966s9.889 1.319 14.306 3.966l156.361 105.903v-152.535z" />
<glyph unicode="&#xe612;" d="M256.445 398.222c78.167 0 141.778-63.798 141.778-142.222s-63.611-142.222-141.361-142.229l-1.694 0.104c-1.57 0.111-3.125 0.206-4.694 0.277l-9.555 0.396-104.237-31.243 17.889 70.613-14.694 21.255c-16.487 23.875-25.209 51.827-25.209 80.827 0 78.424 63.597 142.222 141.778 142.222zM256.445 455.111c-109.722 0-198.667-89.146-198.667-199.111 0-42.062 13.084-81.014 35.306-113.16l-36.194-142.84 191.208 57.313c2.792-0.118 5.528-0.424 8.347-0.424 109.723 0 198.666 89.146 198.666 199.111s-88.944 199.111-198.667 199.111v0z" />
<glyph unicode="&#xe613;" d="M390.097 265.854l-0.016-0.007c5.183 14.75 8.142 30.528 8.142 47.042 0 78.548-63.666 142.222-142.222 142.222s-142.222-63.674-142.222-142.222c0-16.514 2.958-32.292 8.138-47.042v0.007c-55.417-28.188-93.472-85.605-93.472-152.042v-85.326c0-15.736 12.75-28.486 28.486-28.486h398.139c15.736 0 28.486 12.75 28.486 28.486v85.326c0 66.438-38.042 123.854-93.459 152.042zM256 398.222c47.056 0 85.334-38.278 85.334-85.334s-38.277-85.334-85.334-85.334c-47.056 0-85.334 38.278-85.334 85.334s38.278 85.334 85.334 85.334zM426.666 56.889h-341.334v56.923c0 45.632 27.084 84.973 65.945 103.077 26-28.348 63.222-46.222 104.722-46.222s78.722 17.875 104.722 46.222c38.861-18.104 65.945-57.445 65.945-103.077v-56.923z" />
<glyph unicode="&#xe614;" d="M398.474 170.667h-0.555c-15.555 0-28.167-12.611-28.167-28.167v-71.389c0-7.847-6.361-14.222-14.222-14.222h-199.069c-7.847 0-14.208 6.375-14.208 14.222v71.389c0 15.555-12.612 28.167-28.167 28.167h-0.57c-15.541 0-28.153-12.611-28.153-28.167v-114.334c0-15.555 12.612-28.167 28.153-28.167h284.958c15.555 0 28.167 12.611 28.167 28.167v114.334c0 15.555-12.611 28.167-28.167 28.167zM456.905 383.945l-44.541 44.555c-17.681 17.681-40.805 26.375-63.973 26.375-2.361 0-4.722-0.097-7.084-0.277v0.513h-170.625v-0.514c-2.361 0.18-4.722 0.277-7.083 0.277-23.153 0-46.278-8.694-63.958-26.375l-44.556-44.555c-35.472-35.472-35.472-93 0-128.486l1.306-1.292c17.736-17.736 40.971-26.611 64.222-26.611s46.499 8.875 64.222 26.612l4.708 4.694c15.486-19.084 39.111-31.306 65.597-31.306h1.709c26.5 0 50.125 12.222 65.598 31.306l4.709-4.694c17.736-17.737 40.986-26.611 64.236-26.611 23.236 0 46.486 8.875 64.222 26.611l1.291 1.292c35.486 35.486 35.486 93.013 0.001 128.486zM416.696 295.694l-1.306-1.306c-6.417-6.417-14.944-9.945-24-9.945-9.084 0-17.611 3.528-24.027 9.945l-4.694 4.709-40.195 40.208c-2.361 2.361-6.25 2.167-8.361-0.43l-35.833-44.167c-5.278-6.527-13.098-10.263-21.431-10.263h-1.708c-8.333 0-16.138 3.736-21.417 10.264l-35.166 43.334c-2.458 3.042-7.014 3.278-9.778 0.514l-44.153-44.167c-6.417-6.416-14.93-9.944-24.014-9.944-9.070 0-17.597 3.528-24 9.945l-1.306 1.306c-13.25 13.264-13.25 34.763 0 48.027l44.555 44.555c8.445 8.445 18.5 9.709 23.736 9.709 0.917 0 6.18 0.306 7.083 0.236h170.625c0.916 0.070 6.18-0.236 7.084-0.236 5.25 0 15.306-1.264 23.75-9.709l44.555-44.555c13.25-13.264 13.25-34.764 0-48.029z" />
<glyph unicode="&#xe615;" d="M467.088 395.76c-58.064 57.536-150.912 58.736-211.056 4.608-60.16 54.128-152.976 52.928-211.072-4.608-59.856-59.264-59.856-155.344 0-214.64 17.104-16.944 176.848-175.056 176.848-175.056 18.928-18.752 49.536-18.752 68.448 0 0 0 174.912 173.152 176.848 175.056 59.872 59.296 59.872 155.376-0.016 214.64zM444.288 203.712l-176.848-175.056c-6.288-6.256-16.544-6.256-22.8 0l-176.848 175.056c-47.2 46.72-47.2 122.736 0 169.456 45.504 45.040 118.656 46.624 166.544 3.552l21.696-19.52 21.68 19.52c47.904 43.072 121.056 41.504 166.56-3.552 47.2-46.704 47.2-122.72 0.016-169.456zM148.048 359.984c4.432 0 8-3.584 8-8s-3.584-8-8-8h-0.016c-28.704 0-51.984-23.28-51.984-51.984v-0.016c0-4.416-3.584-8-8-8s-8 3.584-8 8v0c0 37.536 30.416 67.952 67.936 67.984 0.032 0 0.032 0.016 0.064 0.016z" />
<glyph unicode="&#xe616;" d="M256.032 196.064c52.944 0 96 43.072 96 96s-43.056 96-96 96c-52.944 0-96-43.056-96-96s43.056-96 96-96zM256.032 372.064c44.128 0 80-35.872 80-80s-35.872-80-80-80c-44.128 0-80 35.872-80 80s35.872 80 80 80zM256 480c-105.888 0-192-85.056-192-192.016 0-112 96.016-226.576 166.016-307.104 0.256-0.32 11.488-12.88 25.376-12.88 0.032 0 1.168 0 1.232 0 13.872 0 25.12 12.56 25.376 12.88 70.032 80.528 166.032 195.088 166.032 307.104 0 106.96-86.128 192.016-192.032 192.016zM257.872 1.872c-0.336-0.32-1.312-1.024-2.16-1.568-0.16 0.432-1.344 1.376-2.064 2.128-58.64 67.472-157.648 181.344-157.648 285.552 0 88.224 71.792 160.016 160 160.016 88.256 0 160.032-71.792 160.032-160.032 0-104.192-99.008-218.064-158.16-286.096z" />
<glyph unicode="&#xe617;" d="M448 400h-384c-35.344 0-64-28.672-64-64v-208c0-35.344 28.656-64 64-64h384c35.344 0 64 28.656 64 64v208c0 35.328-28.656 64-64 64zM32 316l111.984-84-111.984-84v168zM480 128c0-17.664-14.368-32-32-32h-384c-17.648 0-32 14.336-32 32l125.312 94 69.888-52.432c8.528-6.368 18.656-9.6 28.8-9.6 10.128 0 20.256 3.216 28.784 9.6l69.904 52.432 125.312-94zM480 148l-112 84 112 84v-168zM275.184 182.368c-5.584-4.192-12.208-6.4-19.184-6.4s-13.616 2.224-19.2 6.4l-204.8 153.632c0 17.648 14.352 32 32 32h384c17.632 0 32-14.352 32-32l-204.816-153.632z" />
<glyph unicode="&#xe618;" d="M502.4 300.8l-48 63.968c-1.872 2.512-4.096 4.688-6.4 6.768v76.464c0 17.664-14.336 32-32 32h-320c-17.68 0-32-14.336-32-32v-76.48c-2.304-2.064-4.528-4.224-6.4-6.72l-47.984-63.984c-6.208-8.256-9.616-18.48-9.616-28.816v-16c0-26.464 21.536-48 48-48v0-208c0-17.664 14.336-32 32-32h352c17.664 0 32 14.336 32 32v208c26.464 0 48 21.536 48 48v16c0 10.336-3.408 20.56-9.6 28.8zM416 448v-64h-320v64h320zM163.088 240h-67.024l64 112h35.024l-32-112zM211.744 352h36.256v-112h-68.256l32 112zM264 352h36.256l32-112h-68.256v112zM316.88 352h35.024l64-112h-67.024l-32 112zM32 256v16c0 3.472 1.12 6.832 3.2 9.6l48 64c3.024 4.032 7.76 6.4 12.8 6.4h45.632l-64-112h-29.632c-8.832 0-16 7.152-16 16zM320 0h-120v160h120v-160zM432 0h-96v160c0 8.848-7.184 16-16 16h-120c-8.832 0-16-7.152-16-16v-160h-104v208h352v-208zM480 256c0-8.848-7.152-16-16-16h-29.664l-64 112h45.664c5.024 0 9.776-2.368 12.784-6.4l48-64c2.096-2.768 3.216-6.128 3.216-9.6v-16z" />
<glyph unicode="&#xe619;" d="M397.312 296.88c-2.976 4.448-7.968 7.12-13.312 7.12h-16c-8.848 0-16-7.152-16-16v-96c0-8.848 7.152-16 16-16h64c8.848 0 16 7.152 16 16v24c0 3.152-0.944 6.256-2.688 8.88l-48 72zM432 192h-64v96h16l48-72v-24zM503.936 234.624l-64 96c-8.928 13.392-23.872 21.376-39.936 21.376h-64v32c0 26.464-21.536 48-48 48h-240c-26.464 0-48-21.536-48-48v-176c0-26.464 21.536-48 48-48v0-48c0-26.464 21.536-48 48-48h18.272c7.152-27.536 32-48 61.744-48 29.712 0 54.56 20.464 61.712 48h84.512c7.152-27.536 32-48 61.744-48 29.712 0 54.56 20.464 61.712 48h18.304c26.464 0 48 21.536 48 48v96c0 9.504-2.784 18.72-8.064 26.624zM48 192c-8.832 0-16 7.152-16 16v176c0 8.848 7.168 16 16 16h240c8.848 0 16-7.152 16-16v-176c0-8.848-7.152-16-16-16h-240zM176.016 48c-17.68 0-32 14.336-32 32s14.32 32 32 32c17.664 0 32-14.336 32-32s-14.352-32-32-32zM384 48c-17.68 0-32 14.336-32 32s14.32 32 32 32c17.664 0 32-14.336 32-32s-14.336-32-32-32zM480 112c0-8.848-7.152-16-16-16h-18.288c-7.152 27.536-32 48-61.712 48-29.744 0-54.592-20.464-61.744-48h-84.512c-7.152 27.536-32 48-61.712 48-29.744 0-54.592-20.464-61.744-48h-18.288c-8.832 0-16 7.152-16 16v48h208c26.464 0 48 21.536 48 48v112h64c5.344 0 10.336-2.672 13.312-7.12l64-96c1.744-2.624 2.688-5.728 2.688-8.88v-96z" />
<glyph unicode="&#xe61a;" d="M221.905 30.206c0 0 54.321-2.312 54.321 43.918l1.156 162.962 67.612 99.395 1.156-210.347c-0.578-0.578 9.246-135.224-124.244-95.928zM2.889 335.325v-298.185c0 0 2.312-68.768 71.079-68.768h205.724c0 0 66.456 6.935 66.456 72.235v84.948c0 0-9.246-95.928-116.154-95.928h-106.329c0 0-50.853 11.558-50.853 52.009l1.156 154.872-71.079 98.817zM73.969 315.1v110.952c0 0 15.602 48.542 105.174 48.542s98.239-55.476 98.239-55.476l-1.156-167.007-68.767 47.386c0 0 19.070 105.174-32.939 105.174s-100.551-89.571-100.551-89.571zM72.813 250.955v69.923c0 0 37.562 83.793 101.707 83.793 0 0-53.165 0-30.627-105.174l-71.079-48.542zM560.542 303.542c-4.045-4.045-6.356-9.246-6.356-15.602s2.312-11.558 6.356-16.181c4.623-4.623 9.824-6.934 16.181-6.934h17.914c12.713-0.578 24.271-3.468 35.25-8.668s20.226-11.558 28.316-20.226c8.091-8.668 14.447-18.492 19.070-29.472s6.934-23.115 6.934-35.25c0-12.714-2.312-24.849-6.934-35.829s-10.98-20.803-19.070-28.894c-8.091-8.668-17.337-15.025-28.316-20.226s-22.537-8.091-35.25-8.668h-110.952v71.657h108.063c6.356 0 10.98 2.889 15.602 6.934 4.045 4.623 6.356 9.824 6.356 15.603 0 6.356-2.312 11.558-6.934 16.18s-9.824 6.356-16.181 6.356h-16.181v0.578c-12.713 0-24.849 2.889-35.828 8.091s-20.803 11.558-28.894 20.226c-8.091 8.668-14.447 17.914-19.648 29.472-4.623 10.979-6.935 23.115-6.935 35.829 0 7.512 1.156 15.025 2.889 21.959 1.733 7.513 4.623 13.869 7.512 20.226h-30.627l30.627 50.854h192.433v-71.079h-109.797c-5.779 0-10.98-2.311-15.602-6.934zM847.169 381.555c22.537 0 43.341-3.468 61.833-10.98s34.673-17.337 47.964-30.627c13.291-13.291 23.693-29.472 30.628-47.964 7.513-18.492 10.98-39.296 10.98-61.833 0-20.225-3.467-39.874-10.98-58.365s-17.337-34.673-30.628-48.542c-13.291-13.869-29.472-24.849-47.964-33.517s-39.295-12.135-61.833-12.135c-7.513 0-14.447 0.578-21.381 1.734-6.356 1.156-12.713 2.889-19.070 5.779s-12.713 5.779-19.070 9.824c-6.356 4.045-13.291 8.091-21.381 13.291v-121.355h-71.657v343.837h-39.874l30.628 50.853h82.058v-20.803c7.513 5.201 14.447 9.246 21.381 12.135 6.356 2.889 12.713 4.623 19.070 6.357 6.356 1.156 12.713 2.311 19.070 2.311 5.779-0.578 12.713 0 20.226 0zM847.169 148.093c12.713 0 24.271 2.312 34.095 6.934s18.492 10.98 25.427 18.492c6.934 7.512 12.135 16.18 16.181 26.005s5.779 19.648 5.779 30.049c0 25.427-6.934 45.653-21.381 60.1s-34.095 21.381-60.1 21.381c-10.402 0-20.226-1.733-29.472-5.779-9.824-4.045-17.914-9.246-25.427-16.18s-13.869-15.603-18.492-25.426c-4.623-10.402-6.934-21.382-6.934-34.095 0-10.402 2.312-20.226 6.934-30.049s10.98-18.492 18.492-26.005c7.513-7.513 16.181-13.869 25.427-18.492 9.824-4.623 19.648-6.934 29.472-6.934zM1186.961 147.515v-71.079h-40.451v-0.578c-19.648 0-38.14 3.467-55.476 10.979s-32.361 17.337-45.074 30.628c-12.714 12.713-23.115 27.738-30.628 45.074s-10.98 35.829-10.98 55.476v183.188h-40.452l30.628 50.854h50.275l-0.578-0.578h30.628v-233.463c0-9.824 1.734-19.070 5.779-27.738s8.668-16.181 15.602-22.537c6.357-6.356 13.869-11.558 22.537-15.602s17.914-5.779 27.738-5.779v0.578h40.451zM1163.847 380.4v71.079h71.079v-71.079h-71.079zM1163.847 77.014v282.005h71.079v-281.426h-71.079zM1435.449 259.045c12.136-8.091 23.115-16.759 33.517-27.161 9.824-10.402 18.492-21.959 25.427-34.095 6.935-12.714 12.714-26.005 16.758-40.452s5.779-29.472 5.779-44.496c0-23.115-4.045-45.075-12.714-65.878s-20.803-39.295-36.984-55.476l-50.275 50.276c9.246 9.246 16.18 20.226 21.381 32.361s7.513 25.426 7.513 38.718c0 13.869-2.889 27.161-8.091 39.296s-12.714 23.115-21.959 32.361c-9.246 9.246-19.648 16.18-31.784 21.959-12.136 5.201-25.427 8.091-39.295 8.091-5.779 0-10.979-0.578-15.602-1.156v-135.802h-71.079v323.611h-30.628l30.628 50.853h71.079v-165.273c14.447 1.733 27.738 5.779 39.873 12.714s23.115 15.025 32.361 25.427c9.246 10.402 16.18 21.959 21.381 35.25s8.091 27.16 8.091 41.607h71.079c0-28.316-5.779-54.899-17.336-79.747-12.136-24.849-28.316-45.653-49.12-62.989z" horiz-adv-x="1517" />
<glyph unicode="&#xe92b;" d="M458.903 365.462c-11.104 15.146-26.587 32.85-43.589 49.852s-34.706 32.482-49.852 43.589c-25.787 18.91-38.296 21.097-45.462 21.097h-248c-22.056 0-40-17.944-40-40v-432c0-22.056 17.942-40 40-40h368c22.056 0 40 17.944 40 40v312c0 7.166-2.186 19.675-21.097 45.462v0 0zM392.687 392.687c15.35-15.35 27.4-29.199 36.29-40.687h-76.977v76.973c11.49-8.89 25.339-20.939 40.687-36.286v0 0zM448 8c0-4.336-3.664-8-8-8h-368c-4.336 0-8 3.664-8 8v432c0 4.336 3.664 8 8 8 0 0 247.978 0.001 248 0v-112c0-8.836 7.161-16 16-16h112v-312zM128 448h64v-32h-64v32zM192 416h64v-32h-64v32zM128 384h64v-32h-64v32zM192 352h64v-32h-64v32zM128 320h64v-32h-64v32zM192 288h64v-32h-64v32zM128 256h64v-32h-64v32zM192 224h64v-32h-64v32zM128 56c0-13.2 10.8-24 24-24h80c13.2 0 24 10.8 24 24v80c0 13.2-10.8 24-24 24h-40v32h-64v-136zM224 96v-32h-64v32h64z" />
<glyph unicode="&#xe964;" d="M256 480c-141.385 0-256-35.817-256-80v-64c0-44.183 114.615-80 256-80s256 35.817 256 80v64c0 44.183-114.615 80-256 80zM256 208c-141.385 0-256 35.817-256 80v-96c0-44.183 114.615-80 256-80s256 35.817 256 80v96c0-44.183-114.615-80-256-80zM256 64c-141.385 0-256 35.817-256 80v-96c0-44.183 114.615-80 256-80s256 35.817 256 80v96c0-44.183-114.615-80-256-80z" />
<glyph unicode="&#xe971;" d="M288 126.694v26.39c35.249 19.864 64 69.386 64 118.916 0 79.529 0 144-96 144s-96-64.471-96-144c0-49.53 28.751-99.052 64-118.916v-26.39c-108.551-8.874-192-62.21-192-126.694h448c0 64.484-83.449 117.82-192 126.694z" />
<glyph unicode="&#xe972;" d="M384 94.694v26.39c35.249 19.864 64 69.386 64 118.916 0 79.529 0 144-96 144s-96-64.471-96-144c0-49.53 28.751-99.052 64-118.916v-26.39c-108.551-8.874-192-62.21-192-126.694h448c0 64.484-83.449 117.82-192 126.694zM163.598 82.336c27.655 18.075 62.040 31.818 99.894 40.207-7.527 8.892-14.354 18.811-20.246 29.51-15.207 27.617-23.246 58.029-23.246 87.947 0 43.021 0 83.655 15.3 116.881 14.853 32.252 41.564 52.248 79.611 59.744-8.457 38.24-30.97 63.375-90.911 63.375-96 0-96-64.471-96-144 0-49.53 28.751-99.052 64-118.916v-26.39c-108.551-8.874-192-62.21-192-126.694h139.503c7.259 6.455 15.298 12.586 24.095 18.336z" horiz-adv-x="576" />
<glyph unicode="&#xe973;" d="M192 112c0 75.617 47.937 140.243 115.016 165.1 8.14 18.269 12.984 38.582 12.984 58.9 0 79.529 0 144-96 144s-96-64.471-96-144c0-49.53 28.751-99.052 64-118.916v-26.39c-108.551-8.874-192-62.21-192-126.694h198.653c-4.332 15.265-6.653 31.366-6.653 48zM368 256c-79.529 0-144-64.471-144-144s64.471-144 144-144c79.528 0 144 64.471 144 144s-64.471 144-144 144zM448 96h-64v-64h-32v64h-64v32h64v64h32v-64h64v-32z" />
<glyph unicode="&#xe974;" d="M192 112c0 75.617 47.937 140.243 115.016 165.1 8.14 18.269 12.984 38.582 12.984 58.9 0 79.529 0 144-96 144s-96-64.471-96-144c0-49.53 28.751-99.052 64-118.916v-26.39c-108.551-8.874-192-62.21-192-126.694h198.653c-4.332 15.265-6.653 31.366-6.653 48zM368 256c-79.529 0-144-64.471-144-144s64.471-144 144-144c79.528 0 144 64.471 144 144s-64.471 144-144 144zM448 96h-160v32h160v-32z" />
<glyph unicode="&#xe975;" d="M480 176l-144-144-48 48-32-32 80-80 176 176zM224 96h160v57.564c-33.61 19.6-78.154 33.055-128 37.13v26.39c35.249 19.864 64 69.386 64 118.916 0 79.529 0 144-96 144s-96-64.471-96-144c0-49.53 28.751-99.052 64-118.916v-26.39c-108.551-8.874-192-62.21-192-126.694h224v32z" />
<glyph unicode="&#xea9a;" d="M172.006 395.3c0.105 0.433 0.172 0.74 0.194 0.9l0.521 3.779-23.674 0.133c-21.389 0.121-27.935-0.003-28.523-0.542-0.282-0.258-7.666-28.317-20.828-79.137-6.278-24.242-11.562-43.603-11.743-43.026s-7.695 28.249-16.698 61.49c-9.003 33.241-16.552 60.622-16.775 60.846-0.312 0.312-28.99 0.45-52.209 0.251-3.368-0.028-5.239 6.555 30.011-105.567 4.88-15.521 12.185-37.498 16.234-48.839 4.666-13.071 7.995-23.161 10.267-31.587 4.019-16.034 4.16-26.082 3.282-37.813-1.013-13.55-1.16-109.219-0.171-110.819 0.756-1.224 45.611-1.795 49.856-0.634 0.679 0.186 1.132 0.846 1.435 4.464 1.059 3.11 1.143 15.485 1.143 66.872v65.641l2.871 9.056c1.878 5.925 6.6 21.498 10.495 34.61 3.894 13.111 8.605 28.81 10.469 34.886 16.917 55.159 33.070 109.415 33.497 112.505l0.346 2.528zM423.061 315.674l-0.010-3.419-0.533-0.007-0.298-94.497-0.288-91.613-7.333-7.464c-8.212-8.36-14.793-11.55-20.744-10.057-6.481 1.627-6.32-0.9-6.861 107.384l-0.499 99.673h-47.158v-3.425h-0.543v-108.144c0-115.868-0.003-115.8 5.876-127.438 4.683-9.268 11.505-13.779 23.195-15.336h0.001c15.395-2.050 32 4.925 47.385 19.904l6.687 6.511v-11.223c0-9.698 0.277-11.3 2.035-11.79 2.878-0.803 38.587-0.853 42.445-0.063l3.198 0.657v3.314l0.543 0.111v247.549l-47.098-0.629zM303.446 266.835c-4.467 19.17-12.84 32.058-26.616 40.969-21.641 14-46.359 15.478-69.293 4.146-16.713-8.258-27.476-21.957-33.036-42.042-0.663-2.393-1.149-4.406-1.517-7.408-1.415-7.092-1.582-17.675-1.945-66.975-0.56-75.964 0.308-85.002 9.822-102.255 9.332-16.924 28.702-29.33 49.786-31.891 6.348-0.77 19.215 0.429 26.615 2.481 16.816 4.663 32.932 17.953 40.059 33.039 3.079 6.517 4.938 11.048 6.058 19.325 2.087 11.308 2.235 29.587 2.235 76.188-0.001 59.438-0.19 65.931-2.168 74.423zM249.67 111.998c-3.953-3.014-10.867-4.325-16.492-3.125-4.328 0.923-10.169 7.709-11.967 13.901-2.239 7.718-2.411 114.993-0.477 136.029 3.19 10.527 12.095 16.025 21.817 13.407 7.578-2.041 11.458-6.788 13.668-16.729 1.641-7.377 1.835-16.565 1.486-70.63-0.23-35.851-0.358-53.371-1.529-62.776-1.191-5.935-3.16-7.524-6.507-10.077zM1150.195 212.932h22.785l-0.363 20.641c-0.352 18.934-0.631 21.1-3.162 26.236-3.991 8.105-9.88 11.701-19.223 11.701-11.224 0-18.339-5.424-21.694-16.571-1.429-4.743-2.931-37.343-1.853-40.154 0.602-1.572 3.862-1.853 23.511-1.853zM997.898 259.881c-3.038 6.124-8.692 9.139-15.263 8.903-5.111-0.183-10.78-2.339-16.244-6.505l-4.070-3.089v-148.299l4.070-3.089c9.215-7.026 19.337-8.515 26.309-3.851 2.76 1.846 4.558 4.389 5.96 8.43 1.823 5.262 1.982 12.002 1.745 74.386-0.247 65.022-0.39 68.851-2.507 73.113zM1280.439 326.683c-4.54 54.421-8.151 72.083-19.376 94.772-14.864 30.050-36.346 45.894-66.938 49.373-23.655 2.69-112.658 6.485-195.022 8.315-142.594 3.169-377.029-2.929-406.969-10.587-13.837-3.538-24.213-9.555-35.011-20.302-18.922-18.831-30.196-45.839-34.726-83.198-10.346-85.303-10.567-188.363-0.594-276.757 4.288-38.020 13.121-62.721 29.705-83.079 10.347-12.703 28.176-23.499 44.13-26.721 11.192-2.262 67.21-5.399 148.803-8.334 12.153-0.437 44.333-1.19 71.515-1.672 56.65-1.006 160.813-0.411 220.36 1.26 40.063 1.125 113.101 4.086 126.75 5.141 3.839 0.296 12.735 0.864 19.768 1.262 23.639 1.335 38.677 6.284 52.798 17.38 18.276 14.359 32.428 40.897 38.408 72.019 5.657 29.447 9.444 81.887 10.211 141.425 0.642 49.745-0.213 76.588-3.811 119.704zM712.636 346.404l-26.491-0.327-1.163-282.572-22.966-0.291c-17.763-0.244-23.154 0.022-23.583 1.163-0.308 0.813-0.678 64.51-0.836 141.577l-0.29 140.123-51.746 0.654v44.152l152.914-0.618 0.654-43.534-26.491-0.327zM875.108 184.442v-121.517h-41.862v12.791c0 9.623-0.367 12.791-1.49 12.791-0.82 0-4.613-3.172-8.431-7.049-8.279-8.409-18.086-15.183-26.455-18.315-17.331-6.484-33.794-2.7-40.809 9.375-6.419 11.055-6.541 13.526-6.541 128.168v105.274h41.827l0.327-99.132c0.312-97.411 0.357-99.197 2.688-103.166 3.091-5.26 7.804-6.673 15.298-4.615 4.409 1.212 7.418 3.353 14.572 10.466l9.012 8.976v187.473h41.862v-121.517zM1038.379 80.295c-3.686-8.212-11.903-16.255-18.641-18.243-17.583-5.191-31.688-0.962-47.967 14.354-5.052 4.752-9.755 8.612-10.466 8.612-0.856 0-1.308-3.724-1.308-11.047v-11.047h-41.862v327.923h41.862v-53.491c0-29.42 0.393-53.491 0.872-53.491s4.894 3.904 9.812 8.649c11.314 10.921 20.774 15.7 32.779 16.606 21.405 1.62 34.163-9.397 40.009-34.558 1.823-7.848 1.999-16.813 1.999-89.539-0.001-88.589-0.011-88.959-7.088-104.728zM1215.495 128.916c-0.372-9.113-1.477-19.569-2.471-23.257-5.821-21.584-21.318-36.865-43.716-43.135-30.158-8.439-63.352 5.389-76.602 31.906-7.438 14.885-7.704 17.853-7.704 90.593 0 59.309 0.209 66.585 2.107 74.677 5.373 22.894 18.696 37.711 41.245 45.933 6.534 2.382 13.354 3.603 20.168 3.743 24.336 0.499 48.492-12.59 58.614-33.904 6.83-14.38 7.675-20.53 8.359-61.050l0.618-36.339-89.248-0.618-0.327-24.42c-0.465-34.45 1.858-45.044 11.157-51.31 7.822-5.27 19.84-4.873 26.382 0.872 6.131 5.384 7.863 11.168 8.466 28.053l0.545 14.827h43.098l-0.69-16.572z" horiz-adv-x="1285" />
<glyph unicode="&#xeada;" d="M421.006 185.26c-6.824 6.723-21.957 10.283-44.986 10.586-15.589 0.172-34.351-1.201-54.085-3.964-8.837 5.099-17.946 10.647-25.094 17.329-19.231 17.958-35.284 42.886-45.288 70.297 0.652 2.56 1.207 4.81 1.724 7.106 0 0 10.833 61.53 7.966 82.333-0.396 2.853-0.638 3.681-1.404 5.898l-0.941 2.417c-2.947 6.796-8.724 13.997-17.782 13.604l-5.458 0.172c-10.101 0-18.332-5.166-20.493-12.887-6.569-24.217 0.209-60.446 12.49-107.369l-3.144-7.643c-8.794-21.438-19.815-43.030-29.539-62.079l-1.264-2.477c-10.23-20.020-19.513-37.014-27.928-51.411l-8.688-4.594c-0.632-0.334-15.522-8.209-19.014-10.322-29.628-17.69-49.262-37.771-52.519-53.708-1.036-5.085-0.265-11.593 5.007-14.606l8.403-4.229c3.646-1.826 7.489-2.751 11.427-2.751 21.103 0 45.601 26.286 79.349 85.183 38.965 12.685 83.326 23.229 122.206 29.045 29.629-16.684 66.071-28.272 89.071-28.272 4.084 0 7.606 0.39 10.466 1.147 4.411 1.168 8.129 3.684 10.396 7.097 4.463 6.716 5.367 15.966 4.156 25.438-0.36 2.811-2.605 6.287-5.034 8.66zM105.823 72.976c3.849 10.521 19.080 31.322 41.603 49.778 1.416 1.148 4.904 4.416 8.097 7.451-23.552-37.562-39.324-52.533-49.7-57.229zM239.217 380.157c6.783 0 10.642-17.097 10.962-33.127s-3.429-27.28-8.079-35.604c-3.851 12.324-5.713 31.75-5.713 44.452 0 0-0.283 24.279 2.83 24.279v0zM199.426 161.253c4.725 8.458 9.641 17.378 14.665 26.839 12.246 23.158 19.979 41.278 25.739 56.173 11.455-20.842 25.722-38.56 42.492-52.756 2.093-1.771 4.31-3.551 6.638-5.325-34.105-6.748-63.582-14.955-89.534-24.931v0zM414.451 163.174c-2.076-1.299-8.026-2.050-11.854-2.050-12.354 0-27.636 5.647-49.063 14.833 8.234 0.609 15.781 0.919 22.551 0.919 12.391 0 16.060 0.054 28.175-3.036 12.114-3.090 12.269-9.367 10.191-10.666v0zM458.903 365.462c-11.105 15.146-26.587 32.85-43.589 49.852s-34.706 32.482-49.852 43.589c-25.787 18.91-38.296 21.097-45.462 21.097h-248c-22.056 0-40-17.944-40-40v-432c0-22.056 17.943-40 40-40h368c22.056 0 40 17.944 40 40v312c0 7.166-2.186 19.675-21.097 45.462v0zM392.687 392.687c15.35-15.35 27.4-29.199 36.29-40.687h-76.977v76.973c11.491-8.89 25.339-20.939 40.687-36.286v0zM448 8c0-4.336-3.664-8-8-8h-368c-4.336 0-8 3.664-8 8v432c0 4.336 3.664 8 8 8 0 0 247.978 0.001 248 0v-112c0-8.836 7.162-16 16-16h112v-312z" />
<glyph unicode="&#xeadd;" d="M371.514 288h-67.646l-47.866-70.516-47.871 70.516h-67.645l81.081-121.232-91.486-134.768h125.919v45.788h-25.078l25.078 37.497 55.698-83.285h70.222l-91.488 134.768 81.082 121.232zM458.903 365.462c-11.105 15.146-26.587 32.85-43.589 49.852s-34.706 32.482-49.852 43.589c-25.787 18.91-38.296 21.097-45.462 21.097h-248c-22.056 0-40-17.944-40-40v-432c0-22.056 17.943-40 40-40h368c22.056 0 40 17.944 40 40v312c0 7.166-2.186 19.675-21.097 45.462v0zM392.687 392.687c15.35-15.35 27.4-29.199 36.29-40.687h-76.977v76.973c11.491-8.89 25.339-20.939 40.687-36.286v0zM448 8c0-4.336-3.664-8-8-8h-368c-4.336 0-8 3.664-8 8v432c0 4.336 3.664 8 8 8 0 0 247.978 0.001 248 0v-112c0-8.836 7.162-16 16-16h112v-312z" />
<glyph unicode="&#xeade;" d="M267.313 468.686c-6.222 6.222-18.513 11.314-27.313 11.314h-192c-8.8 0-16-7.2-16-16v-480c0-8.8 7.2-16 16-16h384c8.8 0 16 7.2 16 16v288c0 8.8-5.091 21.091-11.313 27.313l-169.374 169.373zM416 0h-352v448h175.579c1.458-0.24 4.204-1.377 5.405-2.239l168.778-168.777c0.861-1.201 1.998-3.947 2.238-5.405v-271.579zM432 480h-96c-8.8 0-10.909-5.091-4.687-11.313l105.373-105.373c6.223-6.223 11.314-4.114 11.314 4.686v96c0 8.8-7.2 16-16 16z" />
<glyph unicode="" d="M267.313 468.686c-6.222 6.222-18.513 11.314-27.313 11.314h-192c-8.8 0-16-7.2-16-16v-480c0-8.8 7.2-16 16-16h384c8.8 0 16 7.2 16 16v288c0 8.8-5.091 21.091-11.313 27.313l-169.374 169.373zM416 0h-352v448h175.579c1.458-0.24 4.204-1.377 5.405-2.239l168.778-168.777c0.861-1.201 1.998-3.947 2.238-5.405v-271.579zM432 480h-96c-8.8 0-10.909-5.091-4.687-11.313l105.373-105.373c6.223-6.223 11.314-4.114 11.314 4.686v96c0 8.8-7.2 16-16 16z" />
<glyph unicode="youtube4" d="M172.006 395.3c0.105 0.433 0.172 0.74 0.194 0.9l0.521 3.779-23.674 0.133c-21.389 0.121-27.935-0.003-28.523-0.542-0.282-0.258-7.666-28.317-20.828-79.137-6.278-24.242-11.562-43.603-11.743-43.026s-7.695 28.249-16.698 61.49c-9.003 33.241-16.552 60.622-16.775 60.846-0.312 0.312-28.99 0.45-52.209 0.251-3.368-0.028-5.239 6.555 30.011-105.567 4.88-15.521 12.185-37.498 16.234-48.839 4.666-13.071 7.995-23.161 10.267-31.587 4.019-16.034 4.16-26.082 3.282-37.813-1.013-13.55-1.16-109.219-0.171-110.819 0.756-1.224 45.611-1.795 49.856-0.634 0.679 0.186 1.132 0.846 1.435 4.464 1.059 3.11 1.143 15.485 1.143 66.872v65.641l2.871 9.056c1.878 5.925 6.6 21.498 10.495 34.61 3.894 13.111 8.605 28.81 10.469 34.886 16.917 55.159 33.070 109.415 33.497 112.505l0.346 2.528zM423.061 315.674l-0.010-3.419-0.533-0.007-0.298-94.497-0.288-91.613-7.333-7.464c-8.212-8.36-14.793-11.55-20.744-10.057-6.481 1.627-6.32-0.9-6.861 107.384l-0.499 99.673h-47.158v-3.425h-0.543v-108.144c0-115.868-0.003-115.8 5.876-127.438 4.683-9.268 11.505-13.779 23.195-15.336h0.001c15.395-2.050 32 4.925 47.385 19.904l6.687 6.511v-11.223c0-9.698 0.277-11.3 2.035-11.79 2.878-0.803 38.587-0.853 42.445-0.063l3.198 0.657v3.314l0.543 0.111v247.549l-47.098-0.629zM303.446 266.835c-4.467 19.17-12.84 32.058-26.616 40.969-21.641 14-46.359 15.478-69.293 4.146-16.713-8.258-27.476-21.957-33.036-42.042-0.663-2.393-1.149-4.406-1.517-7.408-1.415-7.092-1.582-17.675-1.945-66.975-0.56-75.964 0.308-85.002 9.822-102.255 9.332-16.924 28.702-29.33 49.786-31.891 6.348-0.77 19.215 0.429 26.615 2.481 16.816 4.663 32.932 17.953 40.059 33.039 3.079 6.517 4.938 11.048 6.058 19.325 2.087 11.308 2.235 29.587 2.235 76.188-0.001 59.438-0.19 65.931-2.168 74.423zM249.67 111.998c-3.953-3.014-10.867-4.325-16.492-3.125-4.328 0.923-10.169 7.709-11.967 13.901-2.239 7.718-2.411 114.993-0.477 136.029 3.19 10.527 12.095 16.025 21.817 13.407 7.578-2.041 11.458-6.788 13.668-16.729 1.641-7.377 1.835-16.565 1.486-70.63-0.23-35.851-0.358-53.371-1.529-62.776-1.191-5.935-3.16-7.524-6.507-10.077zM1150.195 212.932h22.785l-0.363 20.641c-0.352 18.934-0.631 21.1-3.162 26.236-3.991 8.105-9.88 11.701-19.223 11.701-11.224 0-18.339-5.424-21.694-16.571-1.429-4.743-2.931-37.343-1.853-40.154 0.602-1.572 3.862-1.853 23.511-1.853zM997.898 259.881c-3.038 6.124-8.692 9.139-15.263 8.903-5.111-0.183-10.78-2.339-16.244-6.505l-4.070-3.089v-148.299l4.070-3.089c9.215-7.026 19.337-8.515 26.309-3.851 2.76 1.846 4.558 4.389 5.96 8.43 1.823 5.262 1.982 12.002 1.745 74.386-0.247 65.022-0.39 68.851-2.507 73.113zM1280.439 326.683c-4.54 54.421-8.151 72.083-19.376 94.772-14.864 30.050-36.346 45.894-66.938 49.373-23.655 2.69-112.658 6.485-195.022 8.315-142.594 3.169-377.029-2.929-406.969-10.587-13.837-3.538-24.213-9.555-35.011-20.302-18.922-18.831-30.196-45.839-34.726-83.198-10.346-85.303-10.567-188.363-0.594-276.757 4.288-38.020 13.121-62.721 29.705-83.079 10.347-12.703 28.176-23.499 44.13-26.721 11.192-2.262 67.21-5.399 148.803-8.334 12.153-0.437 44.333-1.19 71.515-1.672 56.65-1.006 160.813-0.411 220.36 1.26 40.063 1.125 113.101 4.086 126.75 5.141 3.839 0.296 12.735 0.864 19.768 1.262 23.639 1.335 38.677 6.284 52.798 17.38 18.276 14.359 32.428 40.897 38.408 72.019 5.657 29.447 9.444 81.887 10.211 141.425 0.642 49.745-0.213 76.588-3.811 119.704zM712.636 346.404l-26.491-0.327-1.163-282.572-22.966-0.291c-17.763-0.244-23.154 0.022-23.583 1.163-0.308 0.813-0.678 64.51-0.836 141.577l-0.29 140.123-51.746 0.654v44.152l152.914-0.618 0.654-43.534-26.491-0.327zM875.108 184.442v-121.517h-41.862v12.791c0 9.623-0.367 12.791-1.49 12.791-0.82 0-4.613-3.172-8.431-7.049-8.279-8.409-18.086-15.183-26.455-18.315-17.331-6.484-33.794-2.7-40.809 9.375-6.419 11.055-6.541 13.526-6.541 128.168v105.274h41.827l0.327-99.132c0.312-97.411 0.357-99.197 2.688-103.166 3.091-5.26 7.804-6.673 15.298-4.615 4.409 1.212 7.418 3.353 14.572 10.466l9.012 8.976v187.473h41.862v-121.517zM1038.379 80.295c-3.686-8.212-11.903-16.255-18.641-18.243-17.583-5.191-31.688-0.962-47.967 14.354-5.052 4.752-9.755 8.612-10.466 8.612-0.856 0-1.308-3.724-1.308-11.047v-11.047h-41.862v327.923h41.862v-53.491c0-29.42 0.393-53.491 0.872-53.491s4.894 3.904 9.812 8.649c11.314 10.921 20.774 15.7 32.779 16.606 21.405 1.62 34.163-9.397 40.009-34.558 1.823-7.848 1.999-16.813 1.999-89.539-0.001-88.589-0.011-88.959-7.088-104.728zM1215.495 128.916c-0.372-9.113-1.477-19.569-2.471-23.257-5.821-21.584-21.318-36.865-43.716-43.135-30.158-8.439-63.352 5.389-76.602 31.906-7.438 14.885-7.704 17.853-7.704 90.593 0 59.309 0.209 66.585 2.107 74.677 5.373 22.894 18.696 37.711 41.245 45.933 6.534 2.382 13.354 3.603 20.168 3.743 24.336 0.499 48.492-12.59 58.614-33.904 6.83-14.38 7.675-20.53 8.359-61.050l0.618-36.339-89.248-0.618-0.327-24.42c-0.465-34.45 1.858-45.044 11.157-51.31 7.822-5.27 19.84-4.873 26.382 0.872 6.131 5.384 7.863 11.168 8.466 28.053l0.545 14.827h43.098l-0.69-16.572z" horiz-adv-x="1285" />
<glyph unicode="users" d="M384 94.694v26.39c35.249 19.864 64 69.386 64 118.916 0 79.529 0 144-96 144s-96-64.471-96-144c0-49.53 28.751-99.052 64-118.916v-26.39c-108.551-8.874-192-62.21-192-126.694h448c0 64.484-83.449 117.82-192 126.694zM163.598 82.336c27.655 18.075 62.040 31.818 99.894 40.207-7.527 8.892-14.354 18.811-20.246 29.51-15.207 27.617-23.246 58.029-23.246 87.947 0 43.021 0 83.655 15.3 116.881 14.853 32.252 41.564 52.248 79.611 59.744-8.457 38.24-30.97 63.375-90.911 63.375-96 0-96-64.471-96-144 0-49.53 28.751-99.052 64-118.916v-26.39c-108.551-8.874-192-62.21-192-126.694h139.503c7.259 6.455 15.298 12.586 24.095 18.336z" horiz-adv-x="576" />
<glyph unicode="user4" d="M480 176l-144-144-48 48-32-32 80-80 176 176zM224 96h160v57.564c-33.61 19.6-78.154 33.055-128 37.13v26.39c35.249 19.864 64 69.386 64 118.916 0 79.529 0 144-96 144s-96-64.471-96-144c0-49.53 28.751-99.052 64-118.916v-26.39c-108.551-8.874-192-62.21-192-126.694h224v32z" />
<glyph unicode="user3" d="M192 112c0 75.617 47.937 140.243 115.016 165.1 8.14 18.269 12.984 38.582 12.984 58.9 0 79.529 0 144-96 144s-96-64.471-96-144c0-49.53 28.751-99.052 64-118.916v-26.39c-108.551-8.874-192-62.21-192-126.694h198.653c-4.332 15.265-6.653 31.366-6.653 48zM368 256c-79.529 0-144-64.471-144-144s64.471-144 144-144c79.528 0 144 64.471 144 144s-64.471 144-144 144zM448 96h-160v32h160v-32z" />
<glyph unicode="user2" d="M192 112c0 75.617 47.937 140.243 115.016 165.1 8.14 18.269 12.984 38.582 12.984 58.9 0 79.529 0 144-96 144s-96-64.471-96-144c0-49.53 28.751-99.052 64-118.916v-26.39c-108.551-8.874-192-62.21-192-126.694h198.653c-4.332 15.265-6.653 31.366-6.653 48zM368 256c-79.529 0-144-64.471-144-144s64.471-144 144-144c79.528 0 144 64.471 144 144s-64.471 144-144 144zM448 96h-64v-64h-32v64h-64v32h64v64h32v-64h64v-32z" />
<glyph unicode="user-plus" d="M192 112c0 75.617 47.937 140.243 115.016 165.1 8.14 18.269 12.984 38.582 12.984 58.9 0 79.529 0 144-96 144s-96-64.471-96-144c0-49.53 28.751-99.052 64-118.916v-26.39c-108.551-8.874-192-62.21-192-126.694h198.653c-4.332 15.265-6.653 31.366-6.653 48zM368 256c-79.529 0-144-64.471-144-144s64.471-144 144-144c79.528 0 144 64.471 144 144s-64.471 144-144 144zM448 96h-64v-64h-32v64h-64v32h64v64h32v-64h64v-32z" />
<glyph unicode="user-minus" d="M192 112c0 75.617 47.937 140.243 115.016 165.1 8.14 18.269 12.984 38.582 12.984 58.9 0 79.529 0 144-96 144s-96-64.471-96-144c0-49.53 28.751-99.052 64-118.916v-26.39c-108.551-8.874-192-62.21-192-126.694h198.653c-4.332 15.265-6.653 31.366-6.653 48zM368 256c-79.529 0-144-64.471-144-144s64.471-144 144-144c79.528 0 144 64.471 144 144s-64.471 144-144 144zM448 96h-160v32h160v-32z" />
<glyph unicode="user-check" d="M480 176l-144-144-48 48-32-32 80-80 176 176zM224 96h160v57.564c-33.61 19.6-78.154 33.055-128 37.13v26.39c35.249 19.864 64 69.386 64 118.916 0 79.529 0 144-96 144s-96-64.471-96-144c0-49.53 28.751-99.052 64-118.916v-26.39c-108.551-8.874-192-62.21-192-126.694h224v32z" />
<glyph unicode="user" d="M288 126.694v26.39c35.249 19.864 64 69.386 64 118.916 0 79.529 0 144-96 144s-96-64.471-96-144c0-49.53 28.751-99.052 64-118.916v-26.39c-108.551-8.874-192-62.21-192-126.694h448c0 64.484-83.449 117.82-192 126.694z" />
<glyph unicode="profile2" d="M288 126.694v26.39c35.249 19.864 64 69.386 64 118.916 0 79.529 0 144-96 144s-96-64.471-96-144c0-49.53 28.751-99.052 64-118.916v-26.39c-108.551-8.874-192-62.21-192-126.694h448c0 64.484-83.449 117.82-192 126.694z" />
<glyph unicode="libreoffice" d="M267.313 468.686c-6.222 6.222-18.513 11.314-27.313 11.314h-192c-8.8 0-16-7.2-16-16v-480c0-8.8 7.2-16 16-16h384c8.8 0 16 7.2 16 16v288c0 8.8-5.091 21.091-11.313 27.313l-169.374 169.373zM416 0h-352v448h175.579c1.458-0.24 4.204-1.377 5.405-2.239l168.778-168.777c0.861-1.201 1.998-3.947 2.238-5.405v-271.579zM432 480h-96c-8.8 0-10.909-5.091-4.687-11.313l105.373-105.373c6.223-6.223 11.314-4.114 11.314 4.686v96c0 8.8-7.2 16-16 16z" />
<glyph unicode="group" d="M384 94.694v26.39c35.249 19.864 64 69.386 64 118.916 0 79.529 0 144-96 144s-96-64.471-96-144c0-49.53 28.751-99.052 64-118.916v-26.39c-108.551-8.874-192-62.21-192-126.694h448c0 64.484-83.449 117.82-192 126.694zM163.598 82.336c27.655 18.075 62.040 31.818 99.894 40.207-7.527 8.892-14.354 18.811-20.246 29.51-15.207 27.617-23.246 58.029-23.246 87.947 0 43.021 0 83.655 15.3 116.881 14.853 32.252 41.564 52.248 79.611 59.744-8.457 38.24-30.97 63.375-90.911 63.375-96 0-96-64.471-96-144 0-49.53 28.751-99.052 64-118.916v-26.39c-108.551-8.874-192-62.21-192-126.694h139.503c7.259 6.455 15.298 12.586 24.095 18.336z" horiz-adv-x="576" />
<glyph unicode="file9" d="M458.903 365.462c-11.104 15.146-26.587 32.85-43.589 49.852s-34.706 32.482-49.852 43.589c-25.787 18.91-38.296 21.097-45.462 21.097h-248c-22.056 0-40-17.944-40-40v-432c0-22.056 17.942-40 40-40h368c22.056 0 40 17.944 40 40v312c0 7.166-2.186 19.675-21.097 45.462v0 0zM392.687 392.687c15.35-15.35 27.4-29.199 36.29-40.687h-76.977v76.973c11.49-8.89 25.339-20.939 40.687-36.286v0 0zM448 8c0-4.336-3.664-8-8-8h-368c-4.336 0-8 3.664-8 8v432c0 4.336 3.664 8 8 8 0 0 247.978 0.001 248 0v-112c0-8.836 7.161-16 16-16h112v-312zM128 448h64v-32h-64v32zM192 416h64v-32h-64v32zM128 384h64v-32h-64v32zM192 352h64v-32h-64v32zM128 320h64v-32h-64v32zM192 288h64v-32h-64v32zM128 256h64v-32h-64v32zM192 224h64v-32h-64v32zM128 56c0-13.2 10.8-24 24-24h80c13.2 0 24 10.8 24 24v80c0 13.2-10.8 24-24 24h-40v32h-64v-136zM224 96v-32h-64v32h64z" />
<glyph unicode="file14" d="M267.313 468.686c-6.222 6.222-18.513 11.314-27.313 11.314h-192c-8.8 0-16-7.2-16-16v-480c0-8.8 7.2-16 16-16h384c8.8 0 16 7.2 16 16v288c0 8.8-5.091 21.091-11.313 27.313l-169.374 169.373zM416 0h-352v448h175.579c1.458-0.24 4.204-1.377 5.405-2.239l168.778-168.777c0.861-1.201 1.998-3.947 2.238-5.405v-271.579zM432 480h-96c-8.8 0-10.909-5.091-4.687-11.313l105.373-105.373c6.223-6.223 11.314-4.114 11.314 4.686v96c0 8.8-7.2 16-16 16z" />
<glyph unicode="file13" d="M371.514 288h-67.646l-47.866-70.516-47.871 70.516h-67.645l81.081-121.232-91.486-134.768h125.919v45.788h-25.078l25.078 37.497 55.698-83.285h70.222l-91.488 134.768 81.082 121.232zM458.903 365.462c-11.105 15.146-26.587 32.85-43.589 49.852s-34.706 32.482-49.852 43.589c-25.787 18.91-38.296 21.097-45.462 21.097h-248c-22.056 0-40-17.944-40-40v-432c0-22.056 17.943-40 40-40h368c22.056 0 40 17.944 40 40v312c0 7.166-2.186 19.675-21.097 45.462v0zM392.687 392.687c15.35-15.35 27.4-29.199 36.29-40.687h-76.977v76.973c11.491-8.89 25.339-20.939 40.687-36.286v0zM448 8c0-4.336-3.664-8-8-8h-368c-4.336 0-8 3.664-8 8v432c0 4.336 3.664 8 8 8 0 0 247.978 0.001 248 0v-112c0-8.836 7.162-16 16-16h112v-312z" />
<glyph unicode="file10" d="M421.006 185.26c-6.824 6.723-21.957 10.283-44.986 10.586-15.589 0.172-34.351-1.201-54.085-3.964-8.837 5.099-17.946 10.647-25.094 17.329-19.231 17.958-35.284 42.886-45.288 70.297 0.652 2.56 1.207 4.81 1.724 7.106 0 0 10.833 61.53 7.966 82.333-0.396 2.853-0.638 3.681-1.404 5.898l-0.941 2.417c-2.947 6.796-8.724 13.997-17.782 13.604l-5.458 0.172c-10.101 0-18.332-5.166-20.493-12.887-6.569-24.217 0.209-60.446 12.49-107.369l-3.144-7.643c-8.794-21.438-19.815-43.030-29.539-62.079l-1.264-2.477c-10.23-20.020-19.513-37.014-27.928-51.411l-8.688-4.594c-0.632-0.334-15.522-8.209-19.014-10.322-29.628-17.69-49.262-37.771-52.519-53.708-1.036-5.085-0.265-11.593 5.007-14.606l8.403-4.229c3.646-1.826 7.489-2.751 11.427-2.751 21.103 0 45.601 26.286 79.349 85.183 38.965 12.685 83.326 23.229 122.206 29.045 29.629-16.684 66.071-28.272 89.071-28.272 4.084 0 7.606 0.39 10.466 1.147 4.411 1.168 8.129 3.684 10.396 7.097 4.463 6.716 5.367 15.966 4.156 25.438-0.36 2.811-2.605 6.287-5.034 8.66zM105.823 72.976c3.849 10.521 19.080 31.322 41.603 49.778 1.416 1.148 4.904 4.416 8.097 7.451-23.552-37.562-39.324-52.533-49.7-57.229zM239.217 380.157c6.783 0 10.642-17.097 10.962-33.127s-3.429-27.28-8.079-35.604c-3.851 12.324-5.713 31.75-5.713 44.452 0 0-0.283 24.279 2.83 24.279v0zM199.426 161.253c4.725 8.458 9.641 17.378 14.665 26.839 12.246 23.158 19.979 41.278 25.739 56.173 11.455-20.842 25.722-38.56 42.492-52.756 2.093-1.771 4.31-3.551 6.638-5.325-34.105-6.748-63.582-14.955-89.534-24.931v0zM414.451 163.174c-2.076-1.299-8.026-2.050-11.854-2.050-12.354 0-27.636 5.647-49.063 14.833 8.234 0.609 15.781 0.919 22.551 0.919 12.391 0 16.060 0.054 28.175-3.036 12.114-3.090 12.269-9.367 10.191-10.666v0zM458.903 365.462c-11.105 15.146-26.587 32.85-43.589 49.852s-34.706 32.482-49.852 43.589c-25.787 18.91-38.296 21.097-45.462 21.097h-248c-22.056 0-40-17.944-40-40v-432c0-22.056 17.943-40 40-40h368c22.056 0 40 17.944 40 40v312c0 7.166-2.186 19.675-21.097 45.462v0zM392.687 392.687c15.35-15.35 27.4-29.199 36.29-40.687h-76.977v76.973c11.491-8.89 25.339-20.939 40.687-36.286v0zM448 8c0-4.336-3.664-8-8-8h-368c-4.336 0-8 3.664-8 8v432c0 4.336 3.664 8 8 8 0 0 247.978 0.001 248 0v-112c0-8.836 7.162-16 16-16h112v-312z" />
<glyph unicode="file-zip" d="M458.903 365.462c-11.104 15.146-26.587 32.85-43.589 49.852s-34.706 32.482-49.852 43.589c-25.787 18.91-38.296 21.097-45.462 21.097h-248c-22.056 0-40-17.944-40-40v-432c0-22.056 17.942-40 40-40h368c22.056 0 40 17.944 40 40v312c0 7.166-2.186 19.675-21.097 45.462v0 0zM392.687 392.687c15.35-15.35 27.4-29.199 36.29-40.687h-76.977v76.973c11.49-8.89 25.339-20.939 40.687-36.286v0 0zM448 8c0-4.336-3.664-8-8-8h-368c-4.336 0-8 3.664-8 8v432c0 4.336 3.664 8 8 8 0 0 247.978 0.001 248 0v-112c0-8.836 7.161-16 16-16h112v-312zM128 448h64v-32h-64v32zM192 416h64v-32h-64v32zM128 384h64v-32h-64v32zM192 352h64v-32h-64v32zM128 320h64v-32h-64v32zM192 288h64v-32h-64v32zM128 256h64v-32h-64v32zM192 224h64v-32h-64v32zM128 56c0-13.2 10.8-24 24-24h80c13.2 0 24 10.8 24 24v80c0 13.2-10.8 24-24 24h-40v32h-64v-136zM224 96v-32h-64v32h64z" />
<glyph unicode="file-pdf" d="M421.006 185.26c-6.824 6.723-21.957 10.283-44.986 10.586-15.589 0.172-34.351-1.201-54.085-3.964-8.837 5.099-17.946 10.647-25.094 17.329-19.231 17.958-35.284 42.886-45.288 70.297 0.652 2.56 1.207 4.81 1.724 7.106 0 0 10.833 61.53 7.966 82.333-0.396 2.853-0.638 3.681-1.404 5.898l-0.941 2.417c-2.947 6.796-8.724 13.997-17.782 13.604l-5.458 0.172c-10.101 0-18.332-5.166-20.493-12.887-6.569-24.217 0.209-60.446 12.49-107.369l-3.144-7.643c-8.794-21.438-19.815-43.030-29.539-62.079l-1.264-2.477c-10.23-20.020-19.513-37.014-27.928-51.411l-8.688-4.594c-0.632-0.334-15.522-8.209-19.014-10.322-29.628-17.69-49.262-37.771-52.519-53.708-1.036-5.085-0.265-11.593 5.007-14.606l8.403-4.229c3.646-1.826 7.489-2.751 11.427-2.751 21.103 0 45.601 26.286 79.349 85.183 38.965 12.685 83.326 23.229 122.206 29.045 29.629-16.684 66.071-28.272 89.071-28.272 4.084 0 7.606 0.39 10.466 1.147 4.411 1.168 8.129 3.684 10.396 7.097 4.463 6.716 5.367 15.966 4.156 25.438-0.36 2.811-2.605 6.287-5.034 8.66zM105.823 72.976c3.849 10.521 19.080 31.322 41.603 49.778 1.416 1.148 4.904 4.416 8.097 7.451-23.552-37.562-39.324-52.533-49.7-57.229zM239.217 380.157c6.783 0 10.642-17.097 10.962-33.127s-3.429-27.28-8.079-35.604c-3.851 12.324-5.713 31.75-5.713 44.452 0 0-0.283 24.279 2.83 24.279v0zM199.426 161.253c4.725 8.458 9.641 17.378 14.665 26.839 12.246 23.158 19.979 41.278 25.739 56.173 11.455-20.842 25.722-38.56 42.492-52.756 2.093-1.771 4.31-3.551 6.638-5.325-34.105-6.748-63.582-14.955-89.534-24.931v0zM414.451 163.174c-2.076-1.299-8.026-2.050-11.854-2.050-12.354 0-27.636 5.647-49.063 14.833 8.234 0.609 15.781 0.919 22.551 0.919 12.391 0 16.060 0.054 28.175-3.036 12.114-3.090 12.269-9.367 10.191-10.666v0zM458.903 365.462c-11.105 15.146-26.587 32.85-43.589 49.852s-34.706 32.482-49.852 43.589c-25.787 18.91-38.296 21.097-45.462 21.097h-248c-22.056 0-40-17.944-40-40v-432c0-22.056 17.943-40 40-40h368c22.056 0 40 17.944 40 40v312c0 7.166-2.186 19.675-21.097 45.462v0zM392.687 392.687c15.35-15.35 27.4-29.199 36.29-40.687h-76.977v76.973c11.491-8.89 25.339-20.939 40.687-36.286v0zM448 8c0-4.336-3.664-8-8-8h-368c-4.336 0-8 3.664-8 8v432c0 4.336 3.664 8 8 8 0 0 247.978 0.001 248 0v-112c0-8.836 7.162-16 16-16h112v-312z" />
<glyph unicode="file-excel" d="M371.514 288h-67.646l-47.866-70.516-47.871 70.516h-67.645l81.081-121.232-91.486-134.768h125.919v45.788h-25.078l25.078 37.497 55.698-83.285h70.222l-91.488 134.768 81.082 121.232zM458.903 365.462c-11.105 15.146-26.587 32.85-43.589 49.852s-34.706 32.482-49.852 43.589c-25.787 18.91-38.296 21.097-45.462 21.097h-248c-22.056 0-40-17.944-40-40v-432c0-22.056 17.943-40 40-40h368c22.056 0 40 17.944 40 40v312c0 7.166-2.186 19.675-21.097 45.462v0zM392.687 392.687c15.35-15.35 27.4-29.199 36.29-40.687h-76.977v76.973c11.491-8.89 25.339-20.939 40.687-36.286v0zM448 8c0-4.336-3.664-8-8-8h-368c-4.336 0-8 3.664-8 8v432c0 4.336 3.664 8 8 8 0 0 247.978 0.001 248 0v-112c0-8.836 7.162-16 16-16h112v-312z" />
<glyph unicode="db" d="M256 480c-141.385 0-256-35.817-256-80v-64c0-44.183 114.615-80 256-80s256 35.817 256 80v64c0 44.183-114.615 80-256 80zM256 208c-141.385 0-256 35.817-256 80v-96c0-44.183 114.615-80 256-80s256 35.817 256 80v96c0-44.183-114.615-80-256-80zM256 64c-141.385 0-256 35.817-256 80v-96c0-44.183 114.615-80 256-80s256 35.817 256 80v96c0-44.183-114.615-80-256-80z" />
<glyph unicode="database" d="M256 480c-141.385 0-256-35.817-256-80v-64c0-44.183 114.615-80 256-80s256 35.817 256 80v64c0 44.183-114.615 80-256 80zM256 208c-141.385 0-256 35.817-256 80v-96c0-44.183 114.615-80 256-80s256 35.817 256 80v96c0-44.183-114.615-80-256-80zM256 64c-141.385 0-256 35.817-256 80v-96c0-44.183 114.615-80 256-80s256 35.817 256 80v96c0-44.183-114.615-80-256-80z" />
<glyph unicode="brand17" d="M172.006 395.3c0.105 0.433 0.172 0.74 0.194 0.9l0.521 3.779-23.674 0.133c-21.389 0.121-27.935-0.003-28.523-0.542-0.282-0.258-7.666-28.317-20.828-79.137-6.278-24.242-11.562-43.603-11.743-43.026s-7.695 28.249-16.698 61.49c-9.003 33.241-16.552 60.622-16.775 60.846-0.312 0.312-28.99 0.45-52.209 0.251-3.368-0.028-5.239 6.555 30.011-105.567 4.88-15.521 12.185-37.498 16.234-48.839 4.666-13.071 7.995-23.161 10.267-31.587 4.019-16.034 4.16-26.082 3.282-37.813-1.013-13.55-1.16-109.219-0.171-110.819 0.756-1.224 45.611-1.795 49.856-0.634 0.679 0.186 1.132 0.846 1.435 4.464 1.059 3.11 1.143 15.485 1.143 66.872v65.641l2.871 9.056c1.878 5.925 6.6 21.498 10.495 34.61 3.894 13.111 8.605 28.81 10.469 34.886 16.917 55.159 33.070 109.415 33.497 112.505l0.346 2.528zM423.061 315.674l-0.010-3.419-0.533-0.007-0.298-94.497-0.288-91.613-7.333-7.464c-8.212-8.36-14.793-11.55-20.744-10.057-6.481 1.627-6.32-0.9-6.861 107.384l-0.499 99.673h-47.158v-3.425h-0.543v-108.144c0-115.868-0.003-115.8 5.876-127.438 4.683-9.268 11.505-13.779 23.195-15.336h0.001c15.395-2.050 32 4.925 47.385 19.904l6.687 6.511v-11.223c0-9.698 0.277-11.3 2.035-11.79 2.878-0.803 38.587-0.853 42.445-0.063l3.198 0.657v3.314l0.543 0.111v247.549l-47.098-0.629zM303.446 266.835c-4.467 19.17-12.84 32.058-26.616 40.969-21.641 14-46.359 15.478-69.293 4.146-16.713-8.258-27.476-21.957-33.036-42.042-0.663-2.393-1.149-4.406-1.517-7.408-1.415-7.092-1.582-17.675-1.945-66.975-0.56-75.964 0.308-85.002 9.822-102.255 9.332-16.924 28.702-29.33 49.786-31.891 6.348-0.77 19.215 0.429 26.615 2.481 16.816 4.663 32.932 17.953 40.059 33.039 3.079 6.517 4.938 11.048 6.058 19.325 2.087 11.308 2.235 29.587 2.235 76.188-0.001 59.438-0.19 65.931-2.168 74.423zM249.67 111.998c-3.953-3.014-10.867-4.325-16.492-3.125-4.328 0.923-10.169 7.709-11.967 13.901-2.239 7.718-2.411 114.993-0.477 136.029 3.19 10.527 12.095 16.025 21.817 13.407 7.578-2.041 11.458-6.788 13.668-16.729 1.641-7.377 1.835-16.565 1.486-70.63-0.23-35.851-0.358-53.371-1.529-62.776-1.191-5.935-3.16-7.524-6.507-10.077zM1150.195 212.932h22.785l-0.363 20.641c-0.352 18.934-0.631 21.1-3.162 26.236-3.991 8.105-9.88 11.701-19.223 11.701-11.224 0-18.339-5.424-21.694-16.571-1.429-4.743-2.931-37.343-1.853-40.154 0.602-1.572 3.862-1.853 23.511-1.853zM997.898 259.881c-3.038 6.124-8.692 9.139-15.263 8.903-5.111-0.183-10.78-2.339-16.244-6.505l-4.070-3.089v-148.299l4.070-3.089c9.215-7.026 19.337-8.515 26.309-3.851 2.76 1.846 4.558 4.389 5.96 8.43 1.823 5.262 1.982 12.002 1.745 74.386-0.247 65.022-0.39 68.851-2.507 73.113zM1280.439 326.683c-4.54 54.421-8.151 72.083-19.376 94.772-14.864 30.050-36.346 45.894-66.938 49.373-23.655 2.69-112.658 6.485-195.022 8.315-142.594 3.169-377.029-2.929-406.969-10.587-13.837-3.538-24.213-9.555-35.011-20.302-18.922-18.831-30.196-45.839-34.726-83.198-10.346-85.303-10.567-188.363-0.594-276.757 4.288-38.020 13.121-62.721 29.705-83.079 10.347-12.703 28.176-23.499 44.13-26.721 11.192-2.262 67.21-5.399 148.803-8.334 12.153-0.437 44.333-1.19 71.515-1.672 56.65-1.006 160.813-0.411 220.36 1.26 40.063 1.125 113.101 4.086 126.75 5.141 3.839 0.296 12.735 0.864 19.768 1.262 23.639 1.335 38.677 6.284 52.798 17.38 18.276 14.359 32.428 40.897 38.408 72.019 5.657 29.447 9.444 81.887 10.211 141.425 0.642 49.745-0.213 76.588-3.811 119.704zM712.636 346.404l-26.491-0.327-1.163-282.572-22.966-0.291c-17.763-0.244-23.154 0.022-23.583 1.163-0.308 0.813-0.678 64.51-0.836 141.577l-0.29 140.123-51.746 0.654v44.152l152.914-0.618 0.654-43.534-26.491-0.327zM875.108 184.442v-121.517h-41.862v12.791c0 9.623-0.367 12.791-1.49 12.791-0.82 0-4.613-3.172-8.431-7.049-8.279-8.409-18.086-15.183-26.455-18.315-17.331-6.484-33.794-2.7-40.809 9.375-6.419 11.055-6.541 13.526-6.541 128.168v105.274h41.827l0.327-99.132c0.312-97.411 0.357-99.197 2.688-103.166 3.091-5.26 7.804-6.673 15.298-4.615 4.409 1.212 7.418 3.353 14.572 10.466l9.012 8.976v187.473h41.862v-121.517zM1038.379 80.295c-3.686-8.212-11.903-16.255-18.641-18.243-17.583-5.191-31.688-0.962-47.967 14.354-5.052 4.752-9.755 8.612-10.466 8.612-0.856 0-1.308-3.724-1.308-11.047v-11.047h-41.862v327.923h41.862v-53.491c0-29.42 0.393-53.491 0.872-53.491s4.894 3.904 9.812 8.649c11.314 10.921 20.774 15.7 32.779 16.606 21.405 1.62 34.163-9.397 40.009-34.558 1.823-7.848 1.999-16.813 1.999-89.539-0.001-88.589-0.011-88.959-7.088-104.728zM1215.495 128.916c-0.372-9.113-1.477-19.569-2.471-23.257-5.821-21.584-21.318-36.865-43.716-43.135-30.158-8.439-63.352 5.389-76.602 31.906-7.438 14.885-7.704 17.853-7.704 90.593 0 59.309 0.209 66.585 2.107 74.677 5.373 22.894 18.696 37.711 41.245 45.933 6.534 2.382 13.354 3.603 20.168 3.743 24.336 0.499 48.492-12.59 58.614-33.904 6.83-14.38 7.675-20.53 8.359-61.050l0.618-36.339-89.248-0.618-0.327-24.42c-0.465-34.45 1.858-45.044 11.157-51.31 7.822-5.27 19.84-4.873 26.382 0.872 6.131 5.384 7.863 11.168 8.466 28.053l0.545 14.827h43.098l-0.69-16.572z" horiz-adv-x="1285" />
</font>
</defs>
</svg>
